<?xml version="1.0" encoding="UTF-8" standalone="no"?>
<svg
   xmlns:dc="http://purl.org/dc/elements/1.1/"
   xmlns:cc="http://creativecommons.org/ns#"
   xmlns:rdf="http://www.w3.org/1999/02/22-rdf-syntax-ns#"
   xmlns:svg="http://www.w3.org/2000/svg"
   xmlns="http://www.w3.org/2000/svg"
   xmlns:xlink="http://www.w3.org/1999/xlink"
   xmlns:sodipodi="http://sodipodi.sourceforge.net/DTD/sodipodi-0.dtd"
   xmlns:inkscape="http://www.inkscape.org/namespaces/inkscape"
   sodipodi:docname="Ben Signature 1.svg"
   inkscape:version="1.0 (4035a4fb49, 2020-05-01)"
   id="svg8"
   version="1.1"
   viewBox="0 0 210 297"
   height="297mm"
   width="210mm">
  <defs
     id="defs2">
    <linearGradient
       inkscape:collect="always"
       id="linearGradient1074">
      <stop
         style="stop-color:#999999;stop-opacity:1"
         offset="0"
         id="stop1070" />
      <stop
         style="stop-color:#ffffff;stop-opacity:1"
         offset="1"
         id="stop1072" />
    </linearGradient>
    <linearGradient
       id="linearGradient881-7-7"
       inkscape:collect="always">
      <stop
         id="stop877"
         offset="0"
         style="stop-color:#55ddff;stop-opacity:1" />
      <stop
         id="stop879"
         offset="1"
         style="stop-color:#2a7fff;stop-opacity:1" />
    </linearGradient>
    <inkscape:perspective
       id="perspective839"
       inkscape:persp3d-origin="105 : 99 : 1"
       inkscape:vp_z="210 : 148.5 : 1"
       inkscape:vp_y="0 : 1000 : 0"
       inkscape:vp_x="0 : 148.5 : 1"
       sodipodi:type="inkscape:persp3d" />
    <radialGradient
       gradientUnits="userSpaceOnUse"
       gradientTransform="matrix(1.9561176,0.01666364,-0.00312092,0.36636155,-71.894147,88.091936)"
       r="53.704878"
       fy="143.69939"
       fx="76.277298"
       cy="143.69939"
       cx="76.277298"
       id="radialGradient883"
       xlink:href="#linearGradient881-7-7"
       inkscape:collect="always" />
    <linearGradient
       spreadMethod="reflect"
       gradientUnits="userSpaceOnUse"
       y2="157.02782"
       x2="48.040516"
       y1="164.02037"
       x1="43.055679"
       id="linearGradient1063"
       xlink:href="#linearGradient1074"
       inkscape:collect="always" />
  </defs>
  <sodipodi:namedview
     inkscape:window-maximized="1"
     inkscape:window-y="-8"
     inkscape:window-x="-8"
     inkscape:window-height="1017"
     inkscape:window-width="1920"
     showgrid="false"
     inkscape:document-rotation="0"
     inkscape:current-layer="layer1"
     inkscape:document-units="mm"
     inkscape:cy="515.35881"
     inkscape:cx="325.76614"
     inkscape:zoom="1.979899"
     inkscape:pageshadow="2"
     inkscape:pageopacity="0.0"
     borderopacity="1.0"
     bordercolor="#666666"
     pagecolor="#ffffff"
     id="base" />
  <metadata
     id="metadata5">
    <rdf:RDF>
      <cc:Work
         rdf:about="">
        <dc:format>image/svg+xml</dc:format>
        <dc:type
           rdf:resource="http://purl.org/dc/dcmitype/StillImage" />
        <dc:title></dc:title>
      </cc:Work>
    </rdf:RDF>
  </metadata>
  <g
     id="layer1"
     inkscape:groupmode="layer"
     inkscape:label="Layer 1">
    <path
       inkscape:transform-center-x="2.8245468e-06"
       id="path861-8"
       style="fill:url(#linearGradient1063);fill-opacity:1;stroke:#7b7b7b;stroke-width:0.0917477;stroke-miterlimit:4;stroke-dasharray:none;stroke-opacity:0.5"
       inkscape:transform-center-y="-1.0290853e-06"
       d="M 160.68684,141.08813 60.133632,169.13786 34.046842,143.48543 57.904099,115.43571 Z"
       sodipodi:nodetypes="ccccc" />
    <path
       sodipodi:nodetypes="ccccc"
       d="M 147.6877,141.14387 62.45301,163.25654 40.340342,143.03375 60.563129,120.92108 Z"
       inkscape:transform-center-y="-1.3833333e-06"
       style="fill:url(#radialGradient883);fill-opacity:1;stroke:#7b7b7b;stroke-width:0.075;stroke-miterlimit:4;stroke-dasharray:none;stroke-opacity:0.5"
       id="path861" />
    <path
       sodipodi:nodetypes="ccsscscscsscscscccssscccscscccsscssscssccssccsccsccccsscssccccscsaascccaacsccsccsscsscsscccssccscsscsssscscscscsscssscccc"
       d="m 36.292108,138.32441 c 5.98937,-1.2164 11.292634,-4.14826 16.553503,-6.8602 1.194415,-0.63478 9.428967,-4.96128 12.257758,-6.57731 0.692962,-0.39587 -1.550104,0.59795 -2.118461,1.13 -0.324481,0.30375 0.87043,-0.34381 1.33572,-0.39726 0.09012,-0.0106 0.03624,0.17173 -0.0049,0.24438 -0.220094,0.38872 -0.509469,0.74266 -0.764203,1.11401 -3.246742,4.33872 -6.906398,8.41237 -10.490964,12.52607 -2.635313,3.02434 -3.541423,4.1085 -6.068522,7.08295 -0.600683,0.72681 -3.232396,3.93661 -4.058998,4.85383 -0.353158,0.39187 -1.641803,1.3211 -1.123302,1.12696 5.219733,-1.95443 5.360889,-2.60146 7.887809,-6.29866 3.830518,-5.08403 8.14077,-9.93018 13.040548,-14.22567 2.705823,-2.37212 4.256173,-3.43034 7.140093,-5.5629 2.489215,-1.72859 3.284193,-2.32935 5.752277,-3.87548 0.68827,-0.43118 2.837061,-1.60615 2.095159,-1.25367 -7.610447,3.61569 -3.462896,1.45626 -2.202313,1.75642 0.308274,0.0733 0.508242,0.34569 0.762365,0.51854 0.158501,0.48931 0.384643,0.96494 0.475511,1.46791 0.54072,2.99292 -0.06037,6.26987 -1.180187,9.10335 -0.256014,0.64778 -0.500434,1.45912 -1.073485,1.86141 -6.716902,4.71537 2.231692,0.96853 -1.51935,1.96991 -12.813685,2.75796 -2.353445,2.22702 -0.575479,1.64875 3.242804,-0.184 6.462649,-0.20094 9.712414,-0.0924 1.384719,0.0462 2.604786,0.0348 3.874541,0.58925 0.465679,0.20334 0.834176,0.55075 1.251263,0.82612 0.298015,0.41685 0.676847,0.79534 0.894042,1.25058 0.711187,1.4907 0.793177,3.5871 0.236526,5.12397 -1.879951,2.78906 -3.181691,4.04522 1.409928,3.13982 1.060758,-0.36417 2.017441,-0.93638 3.026164,-1.40456 4.220821,-2.47467 7.831445,-3.66164 8.978175,-8.00693 0.15592,-0.59085 0.37368,-1.92653 -0.34903,-2.45341 -0.36458,-0.26579 -0.90505,-0.22693 -1.35757,-0.3404 -3.703573,1.53954 -4.131234,1.57209 -8.518929,5.23907 -0.678038,0.56665 -0.948737,1.43181 -1.333249,2.18801 -0.5402,1.06241 -1.198121,2.8071 -1.25483,4.02787 -0.02428,0.52316 0.149562,1.03861 0.224343,1.55791 0.256609,0.40562 0.3973,0.89144 0.769831,1.21685 0.978973,0.85513 2.296274,0.97812 3.586706,0.87737 2.848578,-0.22238 5.357358,-1.50967 7.811358,-2.6945 2.33097,-1.26347 4.66194,-2.52696 6.99292,-3.79043 0.57779,-0.36979 2.35165,-1.42207 1.73334,-1.10938 -1.28534,0.64998 -2.59821,1.28571 -3.73985,2.12407 -0.19921,0.14628 0.53983,-0.0468 0.76984,0.0569 0.3947,0.17806 0.82493,1.06203 0.97661,1.32053 0.17588,0.24566 0.26894,0.55975 0.52763,0.73699 1.52864,1.04732 4.46939,-7.8e-4 5.96157,-0.41533 1.38913,-0.38585 4.38298,-1.3609 5.77801,-1.80851 2.07409,-0.57929 4.64036,-1.50285 6.71842,-0.65055 1.27627,0.52345 2.37461,1.4072 3.06156,2.44028 0,0 2.32113,4.1794 2.44603,4.49845 l 12.21341,2.4957 c -3.09253,-3.86554 -2.66424,-3.48949 -6.04871,-6.72862 -2.25527,-1.69075 -2.13463,-1.81764 -3.81131,-2.96635 -1.26873,-0.86922 -3.62547,-2.5792 -5.28646,-2.79484 -1.91193,-0.24823 -2.99998,0.187 -4.86076,0.60294 -2.73604,0.89133 -5.46857,1.86419 -8.30571,2.47465 -0.37979,0.0817 -2.07404,0.49154 -2.70071,0.14074 -0.25878,-0.14487 -0.34366,-0.45209 -0.51548,-0.67814 -0.2636,-0.46099 -0.73527,-1.42402 -1.24055,-1.73886 -1.98667,-1.23794 -4.12119,0.42136 -7.28941,2.36076 -3.55477,1.85472 -2.94224,1.74571 -6.490694,3.07811 -1.002549,0.13395 -2.32556,0.17972 -3.182359,-0.47882 -0.335807,-0.2581 -0.459477,-0.67778 -0.689212,-1.01665 -0.06936,-0.461 -0.230295,-0.91825 -0.208073,-1.383 0.0569,-1.19006 0.01997,-1.29358 0.09265,-1.93533 0.04963,-0.43823 0.139458,-0.87145 0.233874,-1.30225 0.114205,-0.5211 0.07087,-0.16536 0.401843,-1.54912 0.149057,-0.62319 0.394444,-0.8666 0.922395,-1.19361 0.33736,-0.0366 0.63485,-0.006 0.941209,0.12634 1.101239,0.47395 -0.649787,2.82805 -0.920789,3.28366 -1.387,2.33191 -0.646175,1.36665 -1.20051,1.84911 -0.686911,0.59783 -1.590459,0.93959 -2.474717,1.15718 -6.372613,1.56809 -12.608258,1.09183 -19.668051,0.88866 -0.710751,-0.0371 -7.177861,-0.37997 -8.129338,-0.41434 -1.040087,-0.0376 -2.081182,-0.0498 -3.122018,-0.0623 -0.733274,-0.008 -1.53155,-0.27168 -2.200009,-9.7e-4 -2.108363,0.85286 -4.038106,2.04471 -5.898361,3.27718 -0.160599,0.1064 0.329796,0.20193 0.494696,0.3029 4.415365,1.29625 9.054414,1.79687 13.682224,1.98951 3.876592,0.11774 7.709672,0.0694 11.589709,-0.20024 4.825605,-0.33537 6.208813,-0.88863 7.198,-1.22562 7.740032,-2.63685 1.751308,-1.77119 5.169734,-4.04584 0.47094,-0.52155 0.81086,-1.06243 1.200212,-1.63553 1.4081,-2.07262 1.758193,-4.96209 0.694568,-7.18734 -0.245279,-0.51316 -0.6583,-0.94783 -0.987451,-1.42174 -0.463287,-0.31967 -0.87027,-0.71881 -1.389858,-0.95901 -1.437462,-0.6645 -2.518356,-0.59485 -4.113244,-0.62487 -3.298165,-0.0621 -6.595837,0.0915 -9.887491,0.25407 -3.08352,0.17206 -3.320949,-0.0137 -6.292425,0.23815 -0.790677,0.0671 -2.086527,0.15645 -2.819834,0.42999 -2.18661,0.81544 -4.292053,1.8274 -6.271738,2.99278 -0.237201,0.13963 -0.18702,0.51585 -0.09994,0.75799 0.05349,0.14869 0.30355,0.15349 0.455325,0.23022 1.702762,0.3969 3.490693,0.18694 5.211942,-0.0195 4.021414,-0.7172 4.699615,-1.39786 9.344634,-3.80941 1.674585,-0.86939 2.782269,-2.17882 3.548401,-3.74906 0.281688,-0.64587 0.608073,-1.27746 0.845062,-1.9376 1.027281,-2.86149 1.635383,-6.40326 1.13632,-9.3965 -0.10237,-0.61396 -0.360399,-1.19877 -0.540597,-1.79814 -0.335855,-0.27473 -0.588298,-0.66659 -1.007564,-0.82417 -0.417302,-0.15683 -0.944036,-0.23267 -1.355559,-0.064 -2.2832,0.93579 -4.405274,2.16176 -6.56443,3.31012 -0.688323,0.36609 -1.322881,0.80831 -1.970864,1.22945 -2.341097,1.52153 -3.141507,2.13352 -5.51337,3.82155 -2.856109,2.15297 -4.34738,3.18898 -7.027528,5.58178 -4.91967,4.3922 -9.215178,9.34016 -13.235858,14.40003 -0.701313,0.94265 -1.498389,1.83338 -2.103941,2.82796 -0.357093,0.58652 -1.502975,1.97519 -0.764746,1.88375 4.499673,-0.55744 5.782217,-2.84396 7.940957,-5.55602 0.721017,-0.90583 1.442019,-1.81167 2.163029,-2.71751 2.876244,-3.46401 2.839436,-3.4604 5.949987,-7.02535 3.104593,-3.55812 6.314377,-7.05363 9.327501,-10.67532 0.594489,-0.71457 1.140922,-1.46027 1.71138,-2.19041 0.226889,-0.54085 0.659919,-1.04499 0.680662,-1.62255 0.05134,-1.42962 -1.777419,-0.54011 -2.204118,-0.33667 -1.284231,0.6123 -8.392463,4.30156 -10.776443,5.72227 -0.09754,0.0581 0.229441,-0.0423 0.344162,-0.0636 -5.018785,2.594 -10.052003,5.35961 -15.755757,6.56031 l -4.876249,3.26049 z"
       id="path837"
       style="fill:#000431;fill-opacity:1;stroke:#4a4a4a;stroke-width:0.0770709;stroke-miterlimit:4;stroke-dasharray:none;stroke-opacity:0" />
  </g>
</svg>
